<svg xmlns="http://www.w3.org/2000/svg" xmlns:xlink="http://www.w3.org/1999/xlink" width="500" zoomAndPan="magnify" viewBox="0 0 375 374.999991" height="500" preserveAspectRatio="xMidYMid meet" version="1.0"><defs><clipPath id="e912e74f59"><path d="M 29.40625 84.230469 L 263 84.230469 L 263 302.480469 L 29.40625 302.480469 Z M 29.40625 84.230469 " clip-rule="nonzero"/></clipPath><clipPath id="9c65b85009"><path d="M 176 198 L 345.90625 198 L 345.90625 302.480469 L 176 302.480469 Z M 176 198 " clip-rule="nonzero"/></clipPath></defs><g clip-path="url(#e912e74f59)"><path fill="#000000" d="M 251.214844 292.917969 C 250.113281 292.011719 248.492188 292.203125 247.585938 293.308594 C 246.480469 294.671875 245.378906 295.96875 244.210938 297.265625 L 101.269531 297.265625 C 74.9375 268.0625 70.394531 226.78125 87.257812 193.421875 L 258.285156 193.421875 C 258.804688 194.070312 259.582031 194.460938 260.359375 194.460938 C 260.75 194.460938 261.140625 194.394531 261.527344 194.199219 C 262.824219 193.550781 263.34375 191.992188 262.695312 190.695312 C 258.027344 181.480469 251.863281 173.042969 244.472656 165.707031 L 227.21875 148.507812 L 227.21875 144.09375 C 227.21875 144.03125 227.21875 143.835938 227.21875 143.769531 L 224.625 123.003906 C 224.429688 121.703125 223.328125 120.730469 222.03125 120.730469 L 222.03125 113.851562 L 242.203125 88.601562 C 242.851562 87.757812 242.980469 86.65625 242.460938 85.683594 C 241.941406 84.773438 240.902344 84.253906 239.867188 84.382812 L 125.71875 99.960938 C 124.421875 100.15625 123.449219 101.257812 123.449219 102.558594 L 123.449219 120.730469 L 91.800781 120.730469 C 69.421875 120.730469 48.667969 132.800781 37.578125 152.207031 C 32.261719 161.621094 29.40625 172.328125 29.40625 183.167969 L 29.40625 232.363281 C 29.40625 233.792969 30.574219 234.960938 32 234.960938 L 52.753906 234.960938 C 54.183594 234.960938 55.347656 233.792969 55.347656 232.363281 L 55.347656 183.167969 C 55.347656 176.808594 57.035156 170.574219 60.148438 165.058594 C 66.632812 153.703125 78.761719 146.691406 91.800781 146.691406 L 118.261719 146.691406 L 118.261719 148.507812 L 101.074219 165.644531 C 83.042969 183.6875 72.796875 207.636719 72.277344 233.078125 C 71.757812 258.585938 80.96875 282.921875 98.21875 301.617188 C 98.738281 302.136719 99.386719 302.460938 100.101562 302.460938 L 245.378906 302.460938 C 246.09375 302.460938 246.804688 302.136719 247.261719 301.617188 C 248.75 299.992188 250.242188 298.304688 251.605469 296.554688 C 252.511719 295.449219 252.382812 293.828125 251.214844 292.917969 Z M 123.773438 141.5 L 125.71875 125.921875 L 219.695312 125.921875 L 221.640625 141.5 Z M 128.636719 104.828125 L 234.09375 90.421875 L 218.203125 110.347656 L 128.636719 110.347656 Z M 128.636719 115.539062 L 216.84375 115.539062 L 216.84375 120.730469 L 128.636719 120.730469 Z M 55.671875 162.527344 C 52.105469 168.824219 50.160156 175.964844 50.160156 183.230469 L 50.160156 229.769531 L 34.59375 229.769531 L 34.59375 183.167969 C 34.59375 173.238281 37.191406 163.371094 42.117188 154.738281 C 52.300781 136.957031 71.304688 125.859375 91.800781 125.859375 L 120.464844 125.859375 L 118.519531 141.433594 L 91.800781 141.433594 C 76.945312 141.5 63.066406 149.546875 55.671875 162.527344 Z M 104.707031 169.40625 L 122.671875 151.496094 C 123.191406 150.976562 123.449219 150.328125 123.449219 149.675781 L 123.449219 146.691406 L 222.03125 146.691406 L 222.03125 149.613281 C 222.03125 150.328125 222.289062 150.976562 222.808594 151.429688 L 240.773438 169.34375 C 246.480469 174.988281 251.347656 181.351562 255.367188 188.164062 L 90.046875 188.164062 C 94.070312 181.480469 98.933594 175.183594 104.707031 169.40625 Z M 104.707031 169.40625 " fill-opacity="1" fill-rule="nonzero"/></g><path fill="#000000" d="M 94.585938 202.25 C 95.171875 200.949219 94.585938 199.394531 93.226562 198.808594 C 91.929688 198.226562 90.371094 198.808594 89.789062 200.171875 C 85.25 210.621094 82.785156 221.785156 82.589844 233.273438 C 82.136719 254.367188 89.335938 274.941406 102.757812 291.101562 C 103.277344 291.75 103.992188 292.011719 104.769531 292.011719 C 105.355469 292.011719 105.9375 291.816406 106.457031 291.425781 C 107.558594 290.515625 107.6875 288.894531 106.78125 287.792969 C 94.132812 272.539062 87.386719 253.261719 87.777344 233.402344 C 88.039062 222.5625 90.308594 212.113281 94.585938 202.25 Z M 94.585938 202.25 " fill-opacity="1" fill-rule="nonzero"/><g clip-path="url(#9c65b85009)"><path fill="#000000" d="M 343.3125 198.613281 L 223.78125 198.613281 C 222.355469 198.613281 221.1875 199.78125 221.1875 201.210938 L 221.1875 207.246094 L 216.386719 203.613281 C 212.109375 200.367188 206.789062 198.613281 201.40625 198.613281 C 187.59375 198.613281 176.371094 209.84375 176.371094 223.601562 C 176.371094 231.390625 178.578125 239.050781 182.664062 245.667969 C 191.09375 259.234375 205.6875 267.28125 221.640625 267.28125 L 221.707031 267.28125 C 222.679688 269.488281 224.882812 271.046875 227.480469 271.046875 C 229.617188 271.046875 231.5 270.007812 232.667969 268.320312 C 238.632812 278.316406 247.324219 286.296875 257.703125 291.296875 L 257.703125 299.863281 C 257.703125 301.292969 258.871094 302.460938 260.296875 302.460938 L 306.992188 302.460938 C 308.417969 302.460938 309.585938 301.292969 309.585938 299.863281 L 309.585938 291.296875 C 325.152344 283.703125 336.957031 269.421875 341.171875 251.640625 C 344.351562 238.269531 345.90625 224.511719 345.90625 210.75 L 345.90625 201.210938 C 345.90625 199.78125 344.738281 198.613281 343.3125 198.613281 Z M 228.644531 264.75 C 228.644531 265.398438 228.128906 265.917969 227.480469 265.917969 C 226.832031 265.917969 226.3125 265.398438 226.3125 264.75 C 226.3125 263.324219 225.144531 262.15625 223.71875 262.15625 L 221.578125 262.15625 C 207.4375 262.15625 194.53125 255.015625 187.007812 243.007812 C 183.375 237.167969 181.496094 230.480469 181.496094 223.667969 C 181.496094 212.761719 190.382812 203.804688 201.339844 203.804688 C 205.621094 203.804688 209.835938 205.234375 213.210938 207.765625 L 221.121094 213.738281 L 221.121094 219.902344 C 221.121094 220.550781 220.605469 221.070312 219.957031 221.070312 C 219.566406 221.070312 219.242188 220.875 219.113281 220.746094 C 218.984375 220.617188 218.789062 220.355469 218.789062 219.902344 L 218.789062 216.136719 C 218.789062 215.292969 218.335938 214.449219 217.621094 213.996094 L 209.253906 208.414062 C 206.984375 206.921875 204.390625 206.078125 201.664062 206.078125 L 201.277344 206.078125 C 197.578125 206.078125 194.078125 207.507812 191.484375 210.167969 C 188.890625 212.761719 187.460938 216.269531 187.460938 219.902344 L 187.460938 220.226562 C 187.527344 230.285156 190.511719 240.085938 196.023438 248.460938 C 200.757812 255.597656 208.671875 259.882812 217.296875 259.882812 L 226.441406 259.882812 C 227.609375 259.882812 228.582031 260.855469 228.582031 262.023438 L 228.582031 264.75 Z M 226.507812 254.691406 L 217.359375 254.691406 C 210.550781 254.691406 204.195312 251.316406 200.433594 245.605469 C 195.441406 238.074219 192.78125 229.3125 192.714844 220.226562 L 192.714844 219.902344 C 192.714844 217.632812 193.558594 215.425781 195.179688 213.800781 C 196.800781 212.179688 199.007812 211.269531 201.277344 211.269531 L 201.796875 211.269531 C 203.480469 211.269531 205.101562 211.789062 206.464844 212.699219 L 213.664062 217.566406 L 213.664062 219.902344 C 213.664062 221.589844 214.3125 223.210938 215.546875 224.378906 C 216.710938 225.550781 218.335938 226.199219 220.019531 226.199219 C 220.605469 226.199219 221.1875 226.132812 221.769531 225.9375 C 222.484375 234.570312 223.847656 243.136719 225.855469 251.574219 C 226.117188 252.613281 226.375 253.652344 226.699219 254.691406 C 226.699219 254.691406 226.570312 254.691406 226.507812 254.691406 Z M 304.398438 297.265625 L 262.890625 297.265625 L 262.890625 293.566406 C 269.375 295.96875 276.316406 297.265625 283.515625 297.265625 C 290.84375 297.265625 297.847656 295.96875 304.398438 293.503906 Z M 340.71875 210.6875 C 340.71875 224.054688 339.160156 237.425781 336.113281 250.40625 C 330.339844 274.941406 308.742188 292.074219 283.515625 292.074219 C 258.351562 292.074219 236.6875 274.941406 230.917969 250.40625 C 227.867188 237.425781 226.3125 224.054688 226.3125 210.6875 L 226.3125 203.804688 L 340.71875 203.804688 Z M 340.71875 210.6875 " fill-opacity="1" fill-rule="nonzero"/></g><path fill="#000000" d="M 253.746094 275.65625 C 254.199219 276.042969 254.785156 276.238281 255.367188 276.238281 C 256.144531 276.238281 256.859375 275.914062 257.378906 275.265625 C 258.285156 274.160156 258.089844 272.539062 256.921875 271.628906 C 249.398438 265.660156 244.015625 257.222656 241.8125 247.875 C 239.089844 236.257812 237.660156 224.378906 237.53125 212.4375 C 237.53125 211.011719 236.363281 209.84375 234.9375 209.84375 C 233.511719 209.84375 232.34375 211.011719 232.34375 212.4375 C 232.472656 224.769531 233.964844 237.035156 236.753906 249.042969 C 239.28125 259.492188 245.3125 268.96875 253.746094 275.65625 Z M 253.746094 275.65625 " fill-opacity="1" fill-rule="nonzero"/><path fill="#000000" d="M 254.847656 166.421875 C 255.367188 167.070312 256.144531 167.460938 256.921875 167.460938 C 257.3125 167.460938 257.703125 167.394531 258.027344 167.199219 C 259.128906 166.683594 259.710938 165.449219 259.453125 164.214844 L 256.46875 152.273438 C 256.273438 151.496094 256.144531 150.652344 256.144531 149.871094 C 256.144531 147.210938 257.183594 144.746094 259.0625 142.863281 L 261.203125 140.71875 C 264.445312 137.476562 266.261719 133.191406 266.261719 128.582031 C 266.261719 125.46875 265.417969 122.417969 263.796875 119.757812 L 255.820312 106.453125 C 255.171875 105.347656 253.8125 104.894531 252.644531 105.347656 C 251.476562 105.800781 250.761719 107.035156 251.023438 108.269531 L 254.070312 123.328125 C 254.199219 124.039062 254.265625 124.820312 254.265625 125.53125 C 254.265625 128.519531 253.097656 131.308594 251.023438 133.386719 L 248.882812 135.527344 C 245.832031 138.578125 244.148438 142.601562 244.148438 146.886719 C 244.148438 150.328125 245.3125 153.765625 247.390625 156.558594 Z M 252.644531 139.226562 L 254.785156 137.085938 C 257.832031 134.035156 259.582031 129.882812 259.582031 125.535156 C 259.582031 124.429688 259.453125 123.328125 259.257812 122.289062 L 259.195312 122.09375 L 259.386719 122.417969 C 260.492188 124.300781 261.074219 126.441406 261.074219 128.582031 C 261.074219 131.765625 259.84375 134.8125 257.570312 137.085938 L 255.433594 139.226562 C 252.578125 142.082031 251.023438 145.847656 251.023438 149.9375 C 251.023438 150.976562 251.152344 152.015625 251.347656 153.050781 C 250.179688 151.234375 249.464844 149.15625 249.464844 146.953125 C 249.464844 144.03125 250.566406 141.304688 252.644531 139.226562 Z M 252.644531 139.226562 " fill-opacity="1" fill-rule="nonzero"/><path fill="#000000" d="M 285.070312 166.421875 C 285.589844 167.070312 286.367188 167.460938 287.148438 167.460938 C 287.535156 167.460938 287.925781 167.394531 288.25 167.199219 C 289.351562 166.683594 289.9375 165.449219 289.675781 164.214844 L 286.691406 152.273438 C 286.5 151.496094 286.367188 150.652344 286.367188 149.871094 C 286.367188 147.210938 287.40625 144.746094 289.289062 142.863281 L 291.425781 140.71875 C 294.671875 137.476562 296.484375 133.191406 296.484375 128.582031 C 296.484375 125.46875 295.644531 122.417969 294.023438 119.757812 L 286.042969 106.453125 C 285.394531 105.347656 284.035156 104.894531 282.867188 105.347656 C 281.699219 105.800781 280.984375 107.035156 281.246094 108.269531 L 284.292969 123.328125 C 284.421875 124.039062 284.488281 124.820312 284.488281 125.53125 C 284.488281 128.519531 283.320312 131.308594 281.246094 133.386719 L 279.105469 135.527344 C 276.054688 138.578125 274.371094 142.601562 274.371094 146.886719 C 274.371094 150.328125 275.539062 153.765625 277.613281 156.558594 Z M 282.867188 139.226562 L 285.007812 137.085938 C 288.054688 134.035156 289.804688 129.882812 289.804688 125.535156 C 289.804688 124.429688 289.675781 123.328125 289.480469 122.289062 L 289.417969 122.09375 L 289.613281 122.417969 C 290.714844 124.300781 291.296875 126.441406 291.296875 128.582031 C 291.296875 131.765625 290.066406 134.8125 287.796875 137.085938 L 285.65625 139.226562 C 282.800781 142.082031 281.246094 145.847656 281.246094 149.9375 C 281.246094 150.976562 281.375 152.015625 281.570312 153.050781 C 280.402344 151.234375 279.6875 149.15625 279.6875 146.953125 C 279.6875 144.03125 280.789062 141.304688 282.867188 139.226562 Z M 282.867188 139.226562 " fill-opacity="1" fill-rule="nonzero"/><path fill="#000000" d="M 315.292969 166.421875 C 315.8125 167.070312 316.589844 167.460938 317.371094 167.460938 C 317.757812 167.460938 318.148438 167.394531 318.472656 167.199219 C 319.574219 166.683594 320.160156 165.449219 319.898438 164.214844 L 316.914062 152.273438 C 316.722656 151.496094 316.589844 150.652344 316.589844 149.871094 C 316.589844 147.210938 317.628906 144.746094 319.511719 142.863281 L 321.652344 140.71875 C 324.894531 137.476562 326.710938 133.191406 326.710938 128.582031 C 326.710938 125.46875 325.867188 122.417969 324.246094 119.757812 L 316.265625 106.453125 C 315.617188 105.347656 314.257812 104.894531 313.089844 105.347656 C 311.921875 105.800781 311.207031 107.035156 311.46875 108.269531 L 314.515625 123.390625 C 314.644531 124.105469 314.710938 124.882812 314.710938 125.597656 C 314.710938 128.582031 313.542969 131.375 311.46875 133.453125 L 309.328125 135.59375 C 306.28125 138.644531 304.59375 142.667969 304.59375 146.953125 C 304.59375 150.390625 305.761719 153.832031 307.835938 156.621094 Z M 313.089844 139.226562 L 315.230469 137.085938 C 318.277344 134.035156 320.027344 129.882812 320.027344 125.535156 C 320.027344 124.429688 319.898438 123.328125 319.703125 122.289062 L 319.640625 122.09375 L 319.835938 122.417969 C 320.9375 124.300781 321.519531 126.441406 321.519531 128.582031 C 321.519531 131.765625 320.289062 134.8125 318.019531 137.085938 L 315.878906 139.226562 C 313.023438 142.082031 311.46875 145.847656 311.46875 149.9375 C 311.46875 150.976562 311.597656 152.015625 311.792969 153.050781 C 310.625 151.234375 309.910156 149.15625 309.910156 146.953125 C 309.910156 144.03125 311.015625 141.304688 313.089844 139.226562 Z M 313.089844 139.226562 " fill-opacity="1" fill-rule="nonzero"/></svg>