<svg xmlns="http://www.w3.org/2000/svg" xmlns:xlink="http://www.w3.org/1999/xlink" width="500" zoomAndPan="magnify" viewBox="0 0 375 374.999991" height="500" preserveAspectRatio="xMidYMid meet" version="1.0"><defs><clipPath id="5b1b2ebf11"><path d="M 128.714844 163 L 246 163 L 246 228 L 128.714844 228 Z M 128.714844 163 " clip-rule="nonzero"/></clipPath><clipPath id="05db3bf909"><path d="M 128.714844 163 L 246 163 L 246 228 L 128.714844 228 Z M 128.714844 163 " clip-rule="nonzero"/></clipPath></defs><g clip-path="url(#5b1b2ebf11)"><path fill="#ce967b" d="M 239.375 180.90625 C 238.652344 187.121094 231.871094 196.851562 221.714844 202.539062 C 227.054688 190.027344 228.339844 175.898438 228.636719 169.6875 L 233.003906 169.6875 C 235.144531 169.6875 236.679688 170.246094 237.699219 171.390625 C 239.261719 173.140625 239.871094 176.609375 239.375 180.90625 Z M 173.023438 183.117188 L 173.023438 204.117188 L 157.589844 204.117188 L 157.589844 183.117188 Z M 178.597656 221.074219 C 178.363281 221.0625 157.425781 222.011719 147.757812 210.382812 C 137.808594 198.410156 135.722656 177.617188 135.289062 169.6875 L 163.085938 169.6875 L 163.085938 176.726562 L 154.394531 176.726562 C 152.628906 176.726562 151.199219 178.160156 151.199219 179.921875 L 151.199219 207.3125 C 151.199219 209.074219 152.628906 210.503906 154.394531 210.503906 L 176.21875 210.503906 C 177.980469 210.503906 179.410156 209.074219 179.410156 207.3125 L 179.410156 179.921875 C 179.410156 178.160156 177.980469 176.726562 176.21875 176.726562 L 169.476562 176.726562 L 169.476562 169.6875 L 222.230469 169.6875 C 221.800781 177.613281 219.730469 198.382812 209.753906 210.382812 C 200.128906 221.972656 179.113281 221.074219 178.597656 221.074219 Z M 242.46875 167.136719 C 240.199219 164.59375 237.015625 163.296875 233.003906 163.296875 L 131.980469 163.296875 C 130.214844 163.296875 128.785156 164.730469 128.785156 166.492188 C 128.785156 167.761719 128.941406 197.742188 142.839844 214.464844 C 154.539062 228.535156 177.925781 227.511719 178.597656 227.453125 C 178.738281 227.464844 179.34375 227.488281 180.320312 227.488281 C 186.089844 227.488281 204.664062 226.511719 214.671875 214.464844 C 215.410156 213.578125 216.089844 212.636719 216.753906 211.679688 C 232.390625 206.773438 244.507812 192.132812 245.722656 181.640625 C 246.230469 177.261719 246.078125 171.1875 242.46875 167.136719 " fill-opacity="1" fill-rule="nonzero"/></g><path fill="#ce967b" d="M 157.882812 159.632812 C 158.703125 159.632812 159.519531 159.320312 160.144531 158.695312 L 165.378906 153.460938 C 168.640625 150.199219 168.640625 144.894531 165.378906 141.632812 L 163.089844 139.34375 C 162.324219 138.574219 162.324219 137.324219 163.089844 136.554688 L 167.933594 131.710938 C 169.183594 130.464844 169.183594 128.441406 167.933594 127.195312 C 166.6875 125.945312 164.664062 125.945312 163.417969 127.195312 L 158.574219 132.035156 C 155.3125 135.296875 155.3125 140.601562 158.574219 143.863281 L 160.863281 146.152344 C 161.632812 146.921875 161.632812 148.171875 160.863281 148.941406 L 155.625 154.179688 C 154.378906 155.429688 154.378906 157.449219 155.625 158.695312 C 156.25 159.320312 157.0625 159.632812 157.882812 159.632812 " fill-opacity="1" fill-rule="nonzero"/><path fill="#ce967b" d="M 177.789062 159.632812 C 178.609375 159.632812 179.425781 159.320312 180.050781 158.695312 L 185.285156 153.460938 C 188.546875 150.199219 188.546875 144.894531 185.285156 141.632812 L 183 139.34375 C 182.628906 138.96875 182.417969 138.476562 182.417969 137.949219 C 182.417969 137.421875 182.628906 136.925781 183 136.554688 L 187.839844 131.710938 C 189.089844 130.464844 189.089844 128.441406 187.839844 127.195312 C 186.59375 125.945312 184.570312 125.945312 183.324219 127.195312 L 178.480469 132.035156 C 175.21875 135.296875 175.21875 140.601562 178.480469 143.863281 L 180.769531 146.152344 C 181.539062 146.921875 181.539062 148.171875 180.769531 148.941406 L 175.53125 154.179688 C 174.28125 155.429688 174.28125 157.449219 175.53125 158.695312 C 176.15625 159.320312 176.96875 159.632812 177.789062 159.632812 " fill-opacity="1" fill-rule="nonzero"/><path fill="#ce967b" d="M 197.695312 159.632812 C 198.515625 159.632812 199.332031 159.320312 199.953125 158.695312 L 205.191406 153.460938 C 208.453125 150.199219 208.453125 144.894531 205.191406 141.632812 L 202.902344 139.34375 C 202.132812 138.574219 202.132812 137.324219 202.902344 136.554688 L 207.746094 131.710938 C 208.992188 130.464844 208.992188 128.441406 207.746094 127.195312 C 206.5 125.945312 204.476562 125.945312 203.230469 127.195312 L 198.386719 132.035156 C 195.125 135.296875 195.125 140.601562 198.386719 143.863281 L 200.675781 146.152344 C 201.445312 146.921875 201.445312 148.171875 200.675781 148.941406 L 195.4375 154.179688 C 194.191406 155.429688 194.191406 157.449219 195.4375 158.695312 C 196.058594 159.320312 196.875 159.632812 197.695312 159.632812 " fill-opacity="1" fill-rule="nonzero"/><g clip-path="url(#05db3bf909)"><path fill="#ce967b" d="M 239.375 180.90625 C 238.652344 187.121094 231.871094 196.851562 221.714844 202.539062 C 227.054688 190.027344 228.339844 175.898438 228.636719 169.6875 L 233.003906 169.6875 C 235.144531 169.6875 236.679688 170.246094 237.699219 171.390625 C 239.261719 173.140625 239.871094 176.609375 239.375 180.90625 Z M 173.023438 183.117188 L 173.023438 204.117188 L 157.589844 204.117188 L 157.589844 183.117188 Z M 178.597656 221.074219 C 178.363281 221.0625 157.425781 222.011719 147.757812 210.382812 C 137.808594 198.410156 135.722656 177.617188 135.289062 169.6875 L 163.085938 169.6875 L 163.085938 176.726562 L 154.394531 176.726562 C 152.628906 176.726562 151.199219 178.160156 151.199219 179.921875 L 151.199219 207.3125 C 151.199219 209.074219 152.628906 210.503906 154.394531 210.503906 L 176.21875 210.503906 C 177.980469 210.503906 179.410156 209.074219 179.410156 207.3125 L 179.410156 179.921875 C 179.410156 178.160156 177.980469 176.726562 176.21875 176.726562 L 169.476562 176.726562 L 169.476562 169.6875 L 222.230469 169.6875 C 221.800781 177.613281 219.730469 198.382812 209.753906 210.382812 C 200.128906 221.972656 179.113281 221.074219 178.597656 221.074219 Z M 242.46875 167.136719 C 240.199219 164.59375 237.015625 163.296875 233.003906 163.296875 L 131.980469 163.296875 C 130.214844 163.296875 128.785156 164.730469 128.785156 166.492188 C 128.785156 167.761719 128.941406 197.742188 142.839844 214.464844 C 154.539062 228.535156 177.925781 227.511719 178.597656 227.453125 C 178.738281 227.464844 179.34375 227.488281 180.320312 227.488281 C 186.089844 227.488281 204.664062 226.511719 214.671875 214.464844 C 215.410156 213.578125 216.089844 212.636719 216.753906 211.679688 C 232.390625 206.773438 244.507812 192.132812 245.722656 181.640625 C 246.230469 177.261719 246.078125 171.1875 242.46875 167.136719 " fill-opacity="1" fill-rule="nonzero"/></g><path fill="#ce967b" d="M 157.882812 159.632812 C 158.703125 159.632812 159.519531 159.320312 160.144531 158.695312 L 165.378906 153.460938 C 168.640625 150.199219 168.640625 144.894531 165.378906 141.632812 L 163.089844 139.34375 C 162.324219 138.574219 162.324219 137.324219 163.089844 136.554688 L 167.933594 131.710938 C 169.183594 130.464844 169.183594 128.441406 167.933594 127.195312 C 166.6875 125.945312 164.664062 125.945312 163.417969 127.195312 L 158.574219 132.035156 C 155.3125 135.296875 155.3125 140.601562 158.574219 143.863281 L 160.863281 146.152344 C 161.632812 146.921875 161.632812 148.171875 160.863281 148.941406 L 155.625 154.179688 C 154.378906 155.429688 154.378906 157.449219 155.625 158.695312 C 156.25 159.320312 157.0625 159.632812 157.882812 159.632812 " fill-opacity="1" fill-rule="nonzero"/><path fill="#ce967b" d="M 177.789062 159.632812 C 178.609375 159.632812 179.425781 159.320312 180.050781 158.695312 L 185.285156 153.460938 C 188.546875 150.199219 188.546875 144.894531 185.285156 141.632812 L 183 139.34375 C 182.628906 138.96875 182.417969 138.476562 182.417969 137.949219 C 182.417969 137.421875 182.628906 136.925781 183 136.554688 L 187.839844 131.710938 C 189.089844 130.464844 189.089844 128.441406 187.839844 127.195312 C 186.59375 125.945312 184.570312 125.945312 183.324219 127.195312 L 178.480469 132.035156 C 175.21875 135.296875 175.21875 140.601562 178.480469 143.863281 L 180.769531 146.152344 C 181.539062 146.921875 181.539062 148.171875 180.769531 148.941406 L 175.53125 154.179688 C 174.28125 155.429688 174.28125 157.449219 175.53125 158.695312 C 176.15625 159.320312 176.96875 159.632812 177.789062 159.632812 " fill-opacity="1" fill-rule="nonzero"/><path fill="#ce967b" d="M 197.695312 159.632812 C 198.515625 159.632812 199.332031 159.320312 199.953125 158.695312 L 205.191406 153.460938 C 208.453125 150.199219 208.453125 144.894531 205.191406 141.632812 L 202.902344 139.34375 C 202.132812 138.574219 202.132812 137.324219 202.902344 136.554688 L 207.746094 131.710938 C 208.992188 130.464844 208.992188 128.441406 207.746094 127.195312 C 206.5 125.945312 204.476562 125.945312 203.230469 127.195312 L 198.386719 132.035156 C 195.125 135.296875 195.125 140.601562 198.386719 143.863281 L 200.675781 146.152344 C 201.445312 146.921875 201.445312 148.171875 200.675781 148.941406 L 195.4375 154.179688 C 194.191406 155.429688 194.191406 157.449219 195.4375 158.695312 C 196.058594 159.320312 196.875 159.632812 197.695312 159.632812 " fill-opacity="1" fill-rule="nonzero"/></svg>