<svg xmlns="http://www.w3.org/2000/svg" xmlns:xlink="http://www.w3.org/1999/xlink" width="500" zoomAndPan="magnify" viewBox="0 0 375 374.999991" height="500" preserveAspectRatio="xMidYMid meet" version="1.0"><defs><clipPath id="98fc927ddd"><path d="M 113.4375 157 L 243 157 L 243 235.578125 L 113.4375 235.578125 Z M 113.4375 157 " clip-rule="nonzero"/></clipPath><clipPath id="4f81ad2986"><path d="M 148 75.078125 L 182 75.078125 L 182 146 L 148 146 Z M 148 75.078125 " clip-rule="nonzero"/></clipPath><clipPath id="f0ddd9c0db"><path d="M 113.4375 157 L 243 157 L 243 235.578125 L 113.4375 235.578125 Z M 113.4375 157 " clip-rule="nonzero"/></clipPath><clipPath id="b9928399ea"><path d="M 148 75.078125 L 182 75.078125 L 182 146 L 148 146 Z M 148 75.078125 " clip-rule="nonzero"/></clipPath></defs><g clip-path="url(#98fc927ddd)"><path fill="#ce967b" d="M 226.453125 166.050781 L 222.40625 166.050781 C 222.457031 164.667969 222.457031 163.28125 222.457031 161.894531 C 222.457031 159.710938 220.644531 157.898438 218.460938 157.898438 L 117.433594 157.898438 C 115.25 157.898438 113.4375 159.710938 113.4375 161.894531 C 113.4375 193.917969 122.335938 216.246094 138.960938 227.277344 L 118.820312 227.277344 C 116.632812 227.277344 114.824219 229.085938 114.824219 231.273438 C 114.824219 233.457031 116.632812 235.269531 118.820312 235.269531 L 217.074219 235.269531 C 219.261719 235.269531 221.074219 233.457031 221.074219 231.273438 C 221.074219 229.085938 219.261719 227.277344 217.074219 227.277344 L 196.933594 227.277344 C 203.863281 222.640625 209.457031 216.085938 213.664062 207.667969 L 226.453125 207.667969 C 235.460938 207.667969 242.8125 200.3125 242.8125 191.308594 L 242.8125 182.355469 C 242.8125 173.351562 235.460938 166.050781 226.453125 166.050781 Z M 167.949219 227.277344 C 131.179688 227.277344 122.175781 194.773438 121.484375 165.890625 L 214.410156 165.890625 C 213.71875 194.773438 204.714844 227.277344 167.949219 227.277344 Z M 234.820312 191.308594 C 234.820312 195.890625 231.089844 199.675781 226.453125 199.675781 L 216.96875 199.675781 C 219.527344 192.214844 221.230469 183.6875 221.976562 174.042969 L 226.402344 174.042969 C 230.984375 174.042969 234.765625 177.773438 234.765625 182.410156 L 234.765625 191.308594 Z M 234.820312 191.308594 " fill-opacity="1" fill-rule="nonzero"/></g><g clip-path="url(#4f81ad2986)"><path fill="#ce967b" d="M 151.269531 121.824219 C 148.820312 115.269531 145.78125 107.066406 151.535156 97.6875 C 152.707031 95.824219 155.160156 95.234375 157.023438 96.355469 C 158.890625 97.527344 159.476562 99.980469 158.355469 101.84375 C 154.625 107.917969 156.4375 112.820312 158.730469 119.054688 C 161.234375 125.714844 164.269531 134.082031 158.355469 143.777344 C 157.609375 145.003906 156.277344 145.695312 154.945312 145.695312 C 154.253906 145.695312 153.507812 145.484375 152.867188 145.109375 C 151.003906 143.9375 150.417969 141.488281 151.535156 139.621094 C 155.53125 133.175781 153.667969 128.167969 151.269531 121.824219 Z M 170.878906 119.535156 C 169.707031 121.398438 170.292969 123.851562 172.210938 125.023438 C 172.851562 125.449219 173.597656 125.609375 174.289062 125.609375 C 175.621094 125.609375 176.953125 124.914062 177.699219 123.691406 C 183.667969 113.992188 180.574219 105.679688 178.070312 98.964844 C 175.78125 92.785156 173.96875 87.882812 177.699219 81.753906 C 178.871094 79.890625 178.285156 77.4375 176.367188 76.265625 C 174.449219 75.09375 172.050781 75.734375 170.878906 77.652344 C 165.125 87.03125 168.160156 95.234375 170.613281 101.789062 C 172.957031 108.132812 174.820312 113.140625 170.878906 119.535156 Z M 170.878906 119.535156 " fill-opacity="1" fill-rule="nonzero"/></g><g clip-path="url(#f0ddd9c0db)"><path fill="#ce967b" d="M 226.453125 166.050781 L 222.40625 166.050781 C 222.457031 164.667969 222.457031 163.28125 222.457031 161.894531 C 222.457031 159.710938 220.644531 157.898438 218.460938 157.898438 L 117.433594 157.898438 C 115.25 157.898438 113.4375 159.710938 113.4375 161.894531 C 113.4375 193.917969 122.335938 216.246094 138.960938 227.277344 L 118.820312 227.277344 C 116.632812 227.277344 114.824219 229.085938 114.824219 231.273438 C 114.824219 233.457031 116.632812 235.269531 118.820312 235.269531 L 217.074219 235.269531 C 219.261719 235.269531 221.074219 233.457031 221.074219 231.273438 C 221.074219 229.085938 219.261719 227.277344 217.074219 227.277344 L 196.933594 227.277344 C 203.863281 222.640625 209.457031 216.085938 213.664062 207.667969 L 226.453125 207.667969 C 235.460938 207.667969 242.8125 200.3125 242.8125 191.308594 L 242.8125 182.355469 C 242.8125 173.351562 235.460938 166.050781 226.453125 166.050781 Z M 167.949219 227.277344 C 131.179688 227.277344 122.175781 194.773438 121.484375 165.890625 L 214.410156 165.890625 C 213.71875 194.773438 204.714844 227.277344 167.949219 227.277344 Z M 234.820312 191.308594 C 234.820312 195.890625 231.089844 199.675781 226.453125 199.675781 L 216.96875 199.675781 C 219.527344 192.214844 221.230469 183.6875 221.976562 174.042969 L 226.402344 174.042969 C 230.984375 174.042969 234.765625 177.773438 234.765625 182.410156 L 234.765625 191.308594 Z M 234.820312 191.308594 " fill-opacity="1" fill-rule="nonzero"/></g><g clip-path="url(#b9928399ea)"><path fill="#ce967b" d="M 151.269531 121.824219 C 148.820312 115.269531 145.78125 107.066406 151.535156 97.6875 C 152.707031 95.824219 155.160156 95.234375 157.023438 96.355469 C 158.890625 97.527344 159.476562 99.980469 158.355469 101.84375 C 154.625 107.917969 156.4375 112.820312 158.730469 119.054688 C 161.234375 125.714844 164.269531 134.082031 158.355469 143.777344 C 157.609375 145.003906 156.277344 145.695312 154.945312 145.695312 C 154.253906 145.695312 153.507812 145.484375 152.867188 145.109375 C 151.003906 143.9375 150.417969 141.488281 151.535156 139.621094 C 155.53125 133.175781 153.667969 128.167969 151.269531 121.824219 Z M 170.878906 119.535156 C 169.707031 121.398438 170.292969 123.851562 172.210938 125.023438 C 172.851562 125.449219 173.597656 125.609375 174.289062 125.609375 C 175.621094 125.609375 176.953125 124.914062 177.699219 123.691406 C 183.667969 113.992188 180.574219 105.679688 178.070312 98.964844 C 175.78125 92.785156 173.96875 87.882812 177.699219 81.753906 C 178.871094 79.890625 178.285156 77.4375 176.367188 76.265625 C 174.449219 75.09375 172.050781 75.734375 170.878906 77.652344 C 165.125 87.03125 168.160156 95.234375 170.613281 101.789062 C 172.957031 108.132812 174.820312 113.140625 170.878906 119.535156 Z M 170.878906 119.535156 " fill-opacity="1" fill-rule="nonzero"/></g></svg>