<svg xmlns="http://www.w3.org/2000/svg" xmlns:xlink="http://www.w3.org/1999/xlink" width="500" zoomAndPan="magnify" viewBox="0 0 375 374.999991" height="500" preserveAspectRatio="xMidYMid meet" version="1.0"><defs><clipPath id="0d0208e3aa"><path d="M 116.40625 165 L 243 165 L 243 258 L 116.40625 258 Z M 116.40625 165 " clip-rule="nonzero"/></clipPath><clipPath id="bdc8c6595c"><path d="M 116.40625 165 L 243 165 L 243 258 L 116.40625 258 Z M 116.40625 165 " clip-rule="nonzero"/></clipPath></defs><g clip-path="url(#0d0208e3aa)"><path fill="#ce967b" d="M 215.484375 218.9375 L 215.484375 217.761719 C 216.394531 218.054688 217.328125 218.203125 218.285156 218.210938 C 227.429688 218.210938 242.898438 205.902344 242.898438 196.53125 C 242.898438 195.980469 242.871094 195.433594 242.816406 194.886719 C 242.765625 194.339844 242.683594 193.796875 242.578125 193.257812 C 242.46875 192.71875 242.335938 192.183594 242.175781 191.660156 C 242.015625 191.132812 241.832031 190.617188 241.621094 190.109375 C 241.410156 189.601562 241.175781 189.105469 240.917969 188.621094 C 240.65625 188.136719 240.375 187.664062 240.070312 187.207031 C 239.765625 186.75 239.4375 186.308594 239.089844 185.882812 C 238.742188 185.460938 238.371094 185.050781 237.984375 184.664062 C 237.59375 184.273438 237.1875 183.90625 236.761719 183.558594 C 236.339844 183.207031 235.898438 182.882812 235.441406 182.578125 C 234.984375 182.269531 234.511719 181.988281 234.027344 181.730469 C 233.542969 181.46875 233.046875 181.234375 232.539062 181.023438 C 232.03125 180.816406 231.511719 180.628906 230.988281 180.46875 C 230.460938 180.3125 229.929688 180.175781 229.390625 180.070312 C 228.851562 179.964844 228.308594 179.882812 227.761719 179.828125 C 227.214844 179.773438 226.664062 179.746094 226.117188 179.746094 C 224.164062 179.75 222.269531 180.082031 220.4375 180.746094 C 218.601562 181.410156 216.933594 182.363281 215.429688 183.609375 L 215.429688 179.550781 C 215.429688 170.40625 196.296875 165.566406 177.386719 165.566406 C 158.476562 165.566406 139.375 170.378906 139.375 179.550781 L 139.375 218.714844 C 124.492188 222.683594 116.324219 228.699219 116.324219 235.777344 C 116.324219 249.761719 147.542969 257.257812 176.941406 257.257812 C 206.339844 257.257812 237.527344 249.734375 237.527344 235.777344 C 237.585938 228.839844 229.695312 222.910156 215.484375 218.9375 Z M 145.023438 187.300781 C 152.074219 191.46875 164.800781 193.648438 177.445312 193.648438 C 190.085938 193.648438 202.84375 191.496094 209.890625 187.300781 L 209.890625 221.984375 C 209.890625 222.777344 209.8125 223.558594 209.65625 224.335938 C 209.5 225.109375 209.269531 225.863281 208.964844 226.589844 C 208.664062 227.320312 208.289062 228.015625 207.851562 228.671875 C 207.410156 229.328125 206.910156 229.933594 206.351562 230.492188 C 205.792969 231.050781 205.183594 231.550781 204.523438 231.988281 C 203.867188 232.425781 203.171875 232.796875 202.441406 233.097656 C 201.710938 233.402344 200.960938 233.628906 200.183594 233.785156 C 199.410156 233.9375 198.625 234.015625 197.835938 234.015625 L 156.96875 234.015625 C 156.175781 234.015625 155.394531 233.9375 154.621094 233.785156 C 153.84375 233.628906 153.089844 233.402344 152.359375 233.097656 C 151.628906 232.796875 150.9375 232.425781 150.277344 231.988281 C 149.621094 231.550781 149.011719 231.050781 148.453125 230.492188 C 147.894531 229.933594 147.394531 229.328125 146.953125 228.671875 C 146.511719 228.015625 146.140625 227.320312 145.835938 226.589844 C 145.535156 225.863281 145.304688 225.109375 145.148438 224.335938 C 144.992188 223.558594 144.914062 222.777344 144.910156 221.984375 Z M 216.632812 190.714844 C 216.949219 190.191406 217.304688 189.699219 217.703125 189.238281 C 218.097656 188.773438 218.527344 188.347656 218.996094 187.953125 C 219.460938 187.5625 219.957031 187.210938 220.480469 186.898438 C 221.003906 186.585938 221.546875 186.320312 222.117188 186.097656 C 222.683594 185.875 223.265625 185.699219 223.859375 185.574219 C 224.457031 185.445312 225.058594 185.367188 225.667969 185.339844 C 226.273438 185.308594 226.882812 185.328125 227.488281 185.398438 C 228.09375 185.46875 228.6875 185.589844 229.273438 185.757812 C 229.859375 185.921875 230.429688 186.136719 230.980469 186.398438 C 231.53125 186.65625 232.054688 186.960938 232.558594 187.308594 C 233.058594 187.652344 233.527344 188.039062 233.96875 188.460938 C 234.40625 188.882812 234.808594 189.339844 235.171875 189.828125 C 235.535156 190.316406 235.859375 190.832031 236.136719 191.371094 C 236.417969 191.914062 236.652344 192.472656 236.839844 193.054688 C 237.027344 193.632812 237.167969 194.222656 237.261719 194.824219 C 237.351562 195.429688 237.394531 196.035156 237.386719 196.644531 C 237.386719 202.238281 225.136719 212.726562 218.367188 212.726562 C 218.0625 212.773438 217.757812 212.761719 217.457031 212.695312 C 217.15625 212.625 216.875 212.507812 216.617188 212.335938 C 216.359375 212.167969 216.140625 211.957031 215.960938 211.707031 C 215.777344 211.453125 215.648438 211.179688 215.570312 210.882812 C 215.570312 210.882812 215.375 194.992188 215.347656 192.140625 C 215.484375 191.945312 216.324219 191.046875 216.632812 190.601562 Z M 177.472656 171.300781 C 198.449219 171.300781 209.917969 176.894531 209.917969 179.691406 C 209.917969 182.488281 198.449219 188.082031 177.472656 188.082031 C 156.492188 188.082031 145.050781 182.488281 145.050781 179.691406 C 145.050781 176.894531 156.464844 171.1875 177.445312 171.1875 Z M 176.996094 251.636719 C 142.980469 251.636719 121.972656 242.378906 121.972656 235.75 C 121.972656 232.726562 126.703125 228.085938 139.625 224.558594 C 139.777344 225.59375 140.019531 226.605469 140.351562 227.59375 C 140.683594 228.585938 141.101562 229.539062 141.605469 230.457031 C 142.105469 231.371094 142.6875 232.234375 143.339844 233.050781 C 143.996094 233.863281 144.71875 234.613281 145.507812 235.296875 C 146.296875 235.980469 147.140625 236.589844 148.039062 237.125 C 148.9375 237.660156 149.875 238.113281 150.851562 238.480469 C 151.828125 238.847656 152.832031 239.125 153.859375 239.316406 C 154.886719 239.503906 155.921875 239.601562 156.96875 239.609375 L 197.835938 239.609375 C 198.878906 239.609375 199.914062 239.515625 200.941406 239.328125 C 201.964844 239.144531 202.96875 238.871094 203.945312 238.507812 C 204.925781 238.144531 205.863281 237.699219 206.761719 237.171875 C 207.660156 236.640625 208.503906 236.035156 209.296875 235.355469 C 210.089844 234.675781 210.8125 233.933594 211.472656 233.125 C 212.132812 232.316406 212.714844 231.457031 213.222656 230.546875 C 213.726562 229.632812 214.152344 228.683594 214.488281 227.699219 C 214.828125 226.710938 215.074219 225.703125 215.234375 224.671875 C 227.515625 228.308594 232.019531 232.839844 232.019531 235.859375 C 231.988281 242.378906 211.066406 251.636719 176.996094 251.636719 Z M 176.996094 251.636719 " fill-opacity="1" fill-rule="nonzero"/></g><path fill="#ce967b" d="M 162.5625 146.488281 C 161.480469 147.296875 160.644531 148.308594 160.054688 149.523438 C 159.460938 150.738281 159.179688 152.019531 159.207031 153.371094 C 159.269531 154.148438 159.417969 154.90625 159.65625 155.652344 C 159.894531 156.394531 160.210938 157.097656 160.613281 157.769531 C 161.011719 158.4375 161.484375 159.054688 162.023438 159.613281 C 162.566406 160.175781 163.164062 160.667969 163.820312 161.089844 C 164.121094 161.214844 164.429688 161.28125 164.753906 161.296875 C 165.074219 161.3125 165.390625 161.273438 165.703125 161.179688 C 166.011719 161.085938 166.292969 160.945312 166.554688 160.75 C 166.8125 160.558594 167.035156 160.328125 167.214844 160.058594 C 167.394531 159.789062 167.523438 159.5 167.601562 159.1875 C 167.679688 158.871094 167.703125 158.554688 167.671875 158.234375 C 167.640625 157.910156 167.554688 157.605469 167.417969 157.3125 C 167.28125 157.019531 167.097656 156.757812 166.871094 156.53125 C 166.871094 156.53125 164.828125 155.132812 164.800781 153.371094 C 164.800781 152.167969 165.21875 151.691406 166.28125 150.574219 C 166.753906 150.175781 167.183594 149.738281 167.570312 149.257812 C 168.367188 148.171875 168.890625 146.96875 169.136719 145.640625 C 169.378906 144.316406 169.324219 143.003906 168.96875 141.707031 C 168.746094 141.007812 168.441406 140.351562 168.054688 139.730469 C 167.664062 139.113281 167.207031 138.550781 166.679688 138.042969 C 166.152344 137.539062 165.570312 137.105469 164.9375 136.746094 C 164.300781 136.386719 163.628906 136.109375 162.925781 135.914062 C 162.585938 135.816406 162.238281 135.785156 161.882812 135.820312 C 161.53125 135.855469 161.195312 135.957031 160.878906 136.117188 C 160.5625 136.28125 160.289062 136.496094 160.054688 136.761719 C 159.820312 137.03125 159.644531 137.332031 159.523438 137.667969 C 159.40625 138 159.351562 138.34375 159.363281 138.699219 C 159.375 139.054688 159.453125 139.394531 159.59375 139.722656 C 159.738281 140.046875 159.933594 140.335938 160.183594 140.585938 C 160.4375 140.835938 160.726562 141.035156 161.050781 141.175781 C 161.621094 141.300781 162.128906 141.546875 162.574219 141.917969 C 163.023438 142.289062 163.363281 142.738281 163.597656 143.273438 C 163.832031 144.203125 163.675781 145.058594 163.121094 145.84375 C 162.957031 146.078125 162.769531 146.292969 162.5625 146.488281 Z M 162.5625 146.488281 " fill-opacity="1" fill-rule="nonzero"/><path fill="#ce967b" d="M 175.765625 146.488281 C 174.699219 147.308594 173.878906 148.324219 173.304688 149.535156 C 172.726562 150.75 172.457031 152.027344 172.492188 153.371094 C 172.554688 154.148438 172.703125 154.90625 172.941406 155.652344 C 173.179688 156.394531 173.5 157.097656 173.898438 157.769531 C 174.300781 158.4375 174.769531 159.054688 175.3125 159.613281 C 175.855469 160.175781 176.453125 160.667969 177.109375 161.089844 C 177.421875 161.292969 177.761719 161.429688 178.128906 161.5 C 178.496094 161.566406 178.863281 161.5625 179.226562 161.480469 C 179.59375 161.402344 179.929688 161.257812 180.234375 161.042969 C 180.542969 160.832031 180.796875 160.566406 180.996094 160.25 C 181.195312 159.9375 181.328125 159.601562 181.394531 159.238281 C 181.460938 158.871094 181.453125 158.507812 181.375 158.148438 C 181.296875 157.785156 181.152344 157.453125 180.941406 157.148438 C 180.730469 156.84375 180.46875 156.589844 180.15625 156.390625 C 180.15625 156.390625 178.113281 154.992188 178.085938 153.230469 C 178.085938 152.027344 178.535156 151.550781 179.570312 150.433594 C 180.042969 150.035156 180.46875 149.597656 180.855469 149.117188 C 181.613281 148.039062 182.105469 146.851562 182.332031 145.554688 C 182.554688 144.257812 182.492188 142.976562 182.144531 141.707031 C 181.921875 141.011719 181.617188 140.355469 181.234375 139.734375 C 180.847656 139.117188 180.394531 138.554688 179.867188 138.050781 C 179.34375 137.542969 178.765625 137.109375 178.132812 136.75 C 177.5 136.386719 176.832031 136.109375 176.128906 135.914062 C 175.785156 135.800781 175.429688 135.757812 175.066406 135.78125 C 174.703125 135.804688 174.355469 135.898438 174.03125 136.054688 C 173.703125 136.214844 173.417969 136.429688 173.171875 136.699219 C 172.929688 136.972656 172.746094 137.277344 172.621094 137.621094 C 172.496094 137.960938 172.441406 138.316406 172.457031 138.679688 C 172.472656 139.042969 172.554688 139.390625 172.703125 139.722656 C 172.851562 140.054688 173.058594 140.347656 173.324219 140.597656 C 173.585938 140.847656 173.886719 141.039062 174.226562 141.175781 C 174.796875 141.300781 175.308594 141.546875 175.761719 141.917969 C 176.214844 142.285156 176.5625 142.738281 176.800781 143.273438 C 177.011719 144.203125 176.84375 145.0625 176.296875 145.84375 C 176.140625 146.074219 175.960938 146.289062 175.765625 146.488281 Z M 175.765625 146.488281 " fill-opacity="1" fill-rule="nonzero"/><path fill="#ce967b" d="M 188.882812 146.488281 C 187.820312 147.308594 187 148.324219 186.421875 149.535156 C 185.84375 150.75 185.574219 152.027344 185.613281 153.371094 C 185.742188 154.945312 186.210938 156.410156 187.023438 157.765625 C 187.835938 159.121094 188.902344 160.230469 190.226562 161.089844 C 190.6875 161.386719 191.191406 161.535156 191.738281 161.539062 C 192.324219 161.511719 192.851562 161.324219 193.316406 160.964844 C 193.785156 160.609375 194.105469 160.152344 194.285156 159.589844 C 194.464844 159.03125 194.464844 158.472656 194.289062 157.910156 C 194.117188 157.351562 193.796875 156.890625 193.332031 156.53125 C 193.332031 156.53125 191.289062 155.132812 191.261719 153.371094 C 191.261719 152.167969 191.710938 151.691406 192.746094 150.574219 C 193.214844 150.175781 193.644531 149.738281 194.03125 149.257812 C 194.832031 148.171875 195.355469 146.96875 195.601562 145.644531 C 195.84375 144.316406 195.789062 143.003906 195.429688 141.707031 C 195.207031 141.011719 194.90625 140.355469 194.519531 139.734375 C 194.132812 139.117188 193.679688 138.554688 193.15625 138.050781 C 192.628906 137.542969 192.050781 137.109375 191.417969 136.75 C 190.785156 136.386719 190.117188 136.109375 189.414062 135.914062 C 189.0625 135.777344 188.699219 135.710938 188.320312 135.722656 C 187.945312 135.730469 187.582031 135.8125 187.238281 135.96875 C 186.894531 136.125 186.59375 136.339844 186.335938 136.617188 C 186.082031 136.894531 185.886719 137.210938 185.761719 137.566406 C 185.632812 137.921875 185.578125 138.289062 185.597656 138.664062 C 185.617188 139.042969 185.710938 139.402344 185.875 139.742188 C 186.039062 140.082031 186.265625 140.375 186.550781 140.625 C 186.832031 140.871094 187.15625 141.054688 187.515625 141.175781 C 188.089844 141.300781 188.601562 141.550781 189.054688 141.925781 C 189.511719 142.300781 189.855469 142.757812 190.085938 143.300781 C 190.308594 144.226562 190.140625 145.074219 189.582031 145.84375 C 189.371094 146.082031 189.140625 146.296875 188.882812 146.488281 Z M 188.882812 146.488281 " fill-opacity="1" fill-rule="nonzero"/><g clip-path="url(#bdc8c6595c)"><path fill="#ce967b" d="M 215.484375 218.9375 L 215.484375 217.761719 C 216.394531 218.054688 217.328125 218.203125 218.285156 218.210938 C 227.429688 218.210938 242.898438 205.902344 242.898438 196.53125 C 242.898438 195.980469 242.871094 195.433594 242.816406 194.886719 C 242.765625 194.339844 242.683594 193.796875 242.578125 193.257812 C 242.46875 192.71875 242.335938 192.183594 242.175781 191.660156 C 242.015625 191.132812 241.832031 190.617188 241.621094 190.109375 C 241.410156 189.601562 241.175781 189.105469 240.917969 188.621094 C 240.65625 188.136719 240.375 187.664062 240.070312 187.207031 C 239.765625 186.75 239.4375 186.308594 239.089844 185.882812 C 238.742188 185.460938 238.371094 185.050781 237.984375 184.664062 C 237.59375 184.273438 237.1875 183.90625 236.761719 183.558594 C 236.339844 183.207031 235.898438 182.882812 235.441406 182.578125 C 234.984375 182.269531 234.511719 181.988281 234.027344 181.730469 C 233.542969 181.46875 233.046875 181.234375 232.539062 181.023438 C 232.03125 180.816406 231.511719 180.628906 230.988281 180.46875 C 230.460938 180.3125 229.929688 180.175781 229.390625 180.070312 C 228.851562 179.964844 228.308594 179.882812 227.761719 179.828125 C 227.214844 179.773438 226.664062 179.746094 226.117188 179.746094 C 224.164062 179.75 222.269531 180.082031 220.4375 180.746094 C 218.601562 181.410156 216.933594 182.363281 215.429688 183.609375 L 215.429688 179.550781 C 215.429688 170.40625 196.296875 165.566406 177.386719 165.566406 C 158.476562 165.566406 139.375 170.378906 139.375 179.550781 L 139.375 218.714844 C 124.492188 222.683594 116.324219 228.699219 116.324219 235.777344 C 116.324219 249.761719 147.542969 257.257812 176.941406 257.257812 C 206.339844 257.257812 237.527344 249.734375 237.527344 235.777344 C 237.585938 228.839844 229.695312 222.910156 215.484375 218.9375 Z M 145.023438 187.300781 C 152.074219 191.46875 164.800781 193.648438 177.445312 193.648438 C 190.085938 193.648438 202.84375 191.496094 209.890625 187.300781 L 209.890625 221.984375 C 209.890625 222.777344 209.8125 223.558594 209.65625 224.335938 C 209.5 225.109375 209.269531 225.863281 208.964844 226.589844 C 208.664062 227.320312 208.289062 228.015625 207.851562 228.671875 C 207.410156 229.328125 206.910156 229.933594 206.351562 230.492188 C 205.792969 231.050781 205.183594 231.550781 204.523438 231.988281 C 203.867188 232.425781 203.171875 232.796875 202.441406 233.097656 C 201.710938 233.402344 200.960938 233.628906 200.183594 233.785156 C 199.410156 233.9375 198.625 234.015625 197.835938 234.015625 L 156.96875 234.015625 C 156.175781 234.015625 155.394531 233.9375 154.621094 233.785156 C 153.84375 233.628906 153.089844 233.402344 152.359375 233.097656 C 151.628906 232.796875 150.9375 232.425781 150.277344 231.988281 C 149.621094 231.550781 149.011719 231.050781 148.453125 230.492188 C 147.894531 229.933594 147.394531 229.328125 146.953125 228.671875 C 146.511719 228.015625 146.140625 227.320312 145.835938 226.589844 C 145.535156 225.863281 145.304688 225.109375 145.148438 224.335938 C 144.992188 223.558594 144.914062 222.777344 144.910156 221.984375 Z M 216.632812 190.714844 C 216.949219 190.191406 217.304688 189.699219 217.703125 189.238281 C 218.097656 188.773438 218.527344 188.347656 218.996094 187.953125 C 219.460938 187.5625 219.957031 187.210938 220.480469 186.898438 C 221.003906 186.585938 221.546875 186.320312 222.117188 186.097656 C 222.683594 185.875 223.265625 185.699219 223.859375 185.574219 C 224.457031 185.445312 225.058594 185.367188 225.667969 185.339844 C 226.273438 185.308594 226.882812 185.328125 227.488281 185.398438 C 228.09375 185.46875 228.6875 185.589844 229.273438 185.757812 C 229.859375 185.921875 230.429688 186.136719 230.980469 186.398438 C 231.53125 186.65625 232.054688 186.960938 232.558594 187.308594 C 233.058594 187.652344 233.527344 188.039062 233.96875 188.460938 C 234.40625 188.882812 234.808594 189.339844 235.171875 189.828125 C 235.535156 190.316406 235.859375 190.832031 236.136719 191.371094 C 236.417969 191.914062 236.652344 192.472656 236.839844 193.054688 C 237.027344 193.632812 237.167969 194.222656 237.261719 194.824219 C 237.351562 195.429688 237.394531 196.035156 237.386719 196.644531 C 237.386719 202.238281 225.136719 212.726562 218.367188 212.726562 C 218.0625 212.773438 217.757812 212.761719 217.457031 212.695312 C 217.15625 212.625 216.875 212.507812 216.617188 212.335938 C 216.359375 212.167969 216.140625 211.957031 215.960938 211.707031 C 215.777344 211.453125 215.648438 211.179688 215.570312 210.882812 C 215.570312 210.882812 215.375 194.992188 215.347656 192.140625 C 215.484375 191.945312 216.324219 191.046875 216.632812 190.601562 Z M 177.472656 171.300781 C 198.449219 171.300781 209.917969 176.894531 209.917969 179.691406 C 209.917969 182.488281 198.449219 188.082031 177.472656 188.082031 C 156.492188 188.082031 145.050781 182.488281 145.050781 179.691406 C 145.050781 176.894531 156.464844 171.1875 177.445312 171.1875 Z M 176.996094 251.636719 C 142.980469 251.636719 121.972656 242.378906 121.972656 235.75 C 121.972656 232.726562 126.703125 228.085938 139.625 224.558594 C 139.777344 225.59375 140.019531 226.605469 140.351562 227.59375 C 140.683594 228.585938 141.101562 229.539062 141.605469 230.457031 C 142.105469 231.371094 142.6875 232.234375 143.339844 233.050781 C 143.996094 233.863281 144.71875 234.613281 145.507812 235.296875 C 146.296875 235.980469 147.140625 236.589844 148.039062 237.125 C 148.9375 237.660156 149.875 238.113281 150.851562 238.480469 C 151.828125 238.847656 152.832031 239.125 153.859375 239.316406 C 154.886719 239.503906 155.921875 239.601562 156.96875 239.609375 L 197.835938 239.609375 C 198.878906 239.609375 199.914062 239.515625 200.941406 239.328125 C 201.964844 239.144531 202.96875 238.871094 203.945312 238.507812 C 204.925781 238.144531 205.863281 237.699219 206.761719 237.171875 C 207.660156 236.640625 208.503906 236.035156 209.296875 235.355469 C 210.089844 234.675781 210.8125 233.933594 211.472656 233.125 C 212.132812 232.316406 212.714844 231.457031 213.222656 230.546875 C 213.726562 229.632812 214.152344 228.683594 214.488281 227.699219 C 214.828125 226.710938 215.074219 225.703125 215.234375 224.671875 C 227.515625 228.308594 232.019531 232.839844 232.019531 235.859375 C 231.988281 242.378906 211.066406 251.636719 176.996094 251.636719 Z M 176.996094 251.636719 " fill-opacity="1" fill-rule="nonzero"/></g><path fill="#ce967b" d="M 162.5625 146.488281 C 161.480469 147.296875 160.644531 148.308594 160.054688 149.523438 C 159.460938 150.738281 159.179688 152.019531 159.207031 153.371094 C 159.269531 154.148438 159.417969 154.90625 159.65625 155.652344 C 159.894531 156.394531 160.210938 157.097656 160.613281 157.769531 C 161.011719 158.4375 161.484375 159.054688 162.023438 159.613281 C 162.566406 160.175781 163.164062 160.667969 163.820312 161.089844 C 164.121094 161.214844 164.429688 161.28125 164.753906 161.296875 C 165.074219 161.3125 165.390625 161.273438 165.703125 161.179688 C 166.011719 161.085938 166.292969 160.945312 166.554688 160.75 C 166.8125 160.558594 167.035156 160.328125 167.214844 160.058594 C 167.394531 159.789062 167.523438 159.5 167.601562 159.1875 C 167.679688 158.871094 167.703125 158.554688 167.671875 158.234375 C 167.640625 157.910156 167.554688 157.605469 167.417969 157.3125 C 167.28125 157.019531 167.097656 156.757812 166.871094 156.53125 C 166.871094 156.53125 164.828125 155.132812 164.800781 153.371094 C 164.800781 152.167969 165.21875 151.691406 166.28125 150.574219 C 166.753906 150.175781 167.183594 149.738281 167.570312 149.257812 C 168.367188 148.171875 168.890625 146.96875 169.136719 145.640625 C 169.378906 144.316406 169.324219 143.003906 168.96875 141.707031 C 168.746094 141.007812 168.441406 140.351562 168.054688 139.730469 C 167.664062 139.113281 167.207031 138.550781 166.679688 138.042969 C 166.152344 137.539062 165.570312 137.105469 164.9375 136.746094 C 164.300781 136.386719 163.628906 136.109375 162.925781 135.914062 C 162.585938 135.816406 162.238281 135.785156 161.882812 135.820312 C 161.53125 135.855469 161.195312 135.957031 160.878906 136.117188 C 160.5625 136.28125 160.289062 136.496094 160.054688 136.761719 C 159.820312 137.03125 159.644531 137.332031 159.523438 137.667969 C 159.40625 138 159.351562 138.34375 159.363281 138.699219 C 159.375 139.054688 159.453125 139.394531 159.59375 139.722656 C 159.738281 140.046875 159.933594 140.335938 160.183594 140.585938 C 160.4375 140.835938 160.726562 141.035156 161.050781 141.175781 C 161.621094 141.300781 162.128906 141.546875 162.574219 141.917969 C 163.023438 142.289062 163.363281 142.738281 163.597656 143.273438 C 163.832031 144.203125 163.675781 145.058594 163.121094 145.84375 C 162.957031 146.078125 162.769531 146.292969 162.5625 146.488281 Z M 162.5625 146.488281 " fill-opacity="1" fill-rule="nonzero"/><path fill="#ce967b" d="M 175.765625 146.488281 C 174.699219 147.308594 173.878906 148.324219 173.304688 149.535156 C 172.726562 150.75 172.457031 152.027344 172.492188 153.371094 C 172.554688 154.148438 172.703125 154.90625 172.941406 155.652344 C 173.179688 156.394531 173.5 157.097656 173.898438 157.769531 C 174.300781 158.4375 174.769531 159.054688 175.3125 159.613281 C 175.855469 160.175781 176.453125 160.667969 177.109375 161.089844 C 177.421875 161.292969 177.761719 161.429688 178.128906 161.5 C 178.496094 161.566406 178.863281 161.5625 179.226562 161.480469 C 179.59375 161.402344 179.929688 161.257812 180.234375 161.042969 C 180.542969 160.832031 180.796875 160.566406 180.996094 160.25 C 181.195312 159.9375 181.328125 159.601562 181.394531 159.238281 C 181.460938 158.871094 181.453125 158.507812 181.375 158.148438 C 181.296875 157.785156 181.152344 157.453125 180.941406 157.148438 C 180.730469 156.84375 180.46875 156.589844 180.15625 156.390625 C 180.15625 156.390625 178.113281 154.992188 178.085938 153.230469 C 178.085938 152.027344 178.535156 151.550781 179.570312 150.433594 C 180.042969 150.035156 180.46875 149.597656 180.855469 149.117188 C 181.613281 148.039062 182.105469 146.851562 182.332031 145.554688 C 182.554688 144.257812 182.492188 142.976562 182.144531 141.707031 C 181.921875 141.011719 181.617188 140.355469 181.234375 139.734375 C 180.847656 139.117188 180.394531 138.554688 179.867188 138.050781 C 179.34375 137.542969 178.765625 137.109375 178.132812 136.75 C 177.5 136.386719 176.832031 136.109375 176.128906 135.914062 C 175.785156 135.800781 175.429688 135.757812 175.066406 135.78125 C 174.703125 135.804688 174.355469 135.898438 174.03125 136.054688 C 173.703125 136.214844 173.417969 136.429688 173.171875 136.699219 C 172.929688 136.972656 172.746094 137.277344 172.621094 137.621094 C 172.496094 137.960938 172.441406 138.316406 172.457031 138.679688 C 172.472656 139.042969 172.554688 139.390625 172.703125 139.722656 C 172.851562 140.054688 173.058594 140.347656 173.324219 140.597656 C 173.585938 140.847656 173.886719 141.039062 174.226562 141.175781 C 174.796875 141.300781 175.308594 141.546875 175.761719 141.917969 C 176.214844 142.285156 176.5625 142.738281 176.800781 143.273438 C 177.011719 144.203125 176.84375 145.0625 176.296875 145.84375 C 176.140625 146.074219 175.960938 146.289062 175.765625 146.488281 Z M 175.765625 146.488281 " fill-opacity="1" fill-rule="nonzero"/><path fill="#ce967b" d="M 188.882812 146.488281 C 187.820312 147.308594 187 148.324219 186.421875 149.535156 C 185.84375 150.75 185.574219 152.027344 185.613281 153.371094 C 185.742188 154.945312 186.210938 156.410156 187.023438 157.765625 C 187.835938 159.121094 188.902344 160.230469 190.226562 161.089844 C 190.6875 161.386719 191.191406 161.535156 191.738281 161.539062 C 192.324219 161.511719 192.851562 161.324219 193.316406 160.964844 C 193.785156 160.609375 194.105469 160.152344 194.285156 159.589844 C 194.464844 159.03125 194.464844 158.472656 194.289062 157.910156 C 194.117188 157.351562 193.796875 156.890625 193.332031 156.53125 C 193.332031 156.53125 191.289062 155.132812 191.261719 153.371094 C 191.261719 152.167969 191.710938 151.691406 192.746094 150.574219 C 193.214844 150.175781 193.644531 149.738281 194.03125 149.257812 C 194.832031 148.171875 195.355469 146.96875 195.601562 145.644531 C 195.84375 144.316406 195.789062 143.003906 195.429688 141.707031 C 195.207031 141.011719 194.90625 140.355469 194.519531 139.734375 C 194.132812 139.117188 193.679688 138.554688 193.15625 138.050781 C 192.628906 137.542969 192.050781 137.109375 191.417969 136.75 C 190.785156 136.386719 190.117188 136.109375 189.414062 135.914062 C 189.0625 135.777344 188.699219 135.710938 188.320312 135.722656 C 187.945312 135.730469 187.582031 135.8125 187.238281 135.96875 C 186.894531 136.125 186.59375 136.339844 186.335938 136.617188 C 186.082031 136.894531 185.886719 137.210938 185.761719 137.566406 C 185.632812 137.921875 185.578125 138.289062 185.597656 138.664062 C 185.617188 139.042969 185.710938 139.402344 185.875 139.742188 C 186.039062 140.082031 186.265625 140.375 186.550781 140.625 C 186.832031 140.871094 187.15625 141.054688 187.515625 141.175781 C 188.089844 141.300781 188.601562 141.550781 189.054688 141.925781 C 189.511719 142.300781 189.855469 142.757812 190.085938 143.300781 C 190.308594 144.226562 190.140625 145.074219 189.582031 145.84375 C 189.371094 146.082031 189.140625 146.296875 188.882812 146.488281 Z M 188.882812 146.488281 " fill-opacity="1" fill-rule="nonzero"/></svg>