<svg xmlns="http://www.w3.org/2000/svg" xmlns:xlink="http://www.w3.org/1999/xlink" width="500" zoomAndPan="magnify" viewBox="0 0 375 374.999991" height="500" preserveAspectRatio="xMidYMid meet" version="1.0"><defs><clipPath id="a198da2e3c"><path d="M 26.171875 46.742188 L 348.671875 46.742188 L 348.671875 105 L 26.171875 105 Z M 26.171875 46.742188 " clip-rule="nonzero"/></clipPath><clipPath id="0bdbc12dd5"><path d="M 26.171875 158 L 348.671875 158 L 348.671875 217 L 26.171875 217 Z M 26.171875 158 " clip-rule="nonzero"/></clipPath><clipPath id="7a937ccf56"><path d="M 26.171875 270 L 348.671875 270 L 348.671875 327.992188 L 26.171875 327.992188 Z M 26.171875 270 " clip-rule="nonzero"/></clipPath><clipPath id="d1763fc762"><path d="M 26.171875 46.742188 L 348.671875 46.742188 L 348.671875 105 L 26.171875 105 Z M 26.171875 46.742188 " clip-rule="nonzero"/></clipPath><clipPath id="bdbe5d4b9f"><path d="M 26.171875 158 L 348.671875 158 L 348.671875 217 L 26.171875 217 Z M 26.171875 158 " clip-rule="nonzero"/></clipPath><clipPath id="454be27d31"><path d="M 26.171875 270 L 348.671875 270 L 348.671875 327.992188 L 26.171875 327.992188 Z M 26.171875 270 " clip-rule="nonzero"/></clipPath></defs><g clip-path="url(#a198da2e3c)"><path fill="#ce967b" d="M 54.804688 104.058594 L 320.1875 104.058594 C 336 104.058594 348.824219 91.238281 348.824219 75.421875 C 348.824219 59.609375 336.003906 46.785156 320.1875 46.785156 L 54.804688 46.785156 C 38.992188 46.785156 26.171875 59.605469 26.171875 75.421875 C 26.171875 91.238281 38.992188 104.058594 54.804688 104.058594 Z M 54.804688 104.058594 " fill-opacity="1" fill-rule="nonzero"/></g><g clip-path="url(#0bdbc12dd5)"><path fill="#ce967b" d="M 320.1875 158.859375 L 54.804688 158.859375 C 38.992188 158.859375 26.171875 171.679688 26.171875 187.496094 C 26.171875 203.3125 38.992188 216.128906 54.804688 216.128906 L 320.1875 216.128906 C 336 216.128906 348.824219 203.308594 348.824219 187.496094 C 348.824219 171.679688 336.003906 158.859375 320.1875 158.859375 Z M 320.1875 158.859375 " fill-opacity="1" fill-rule="nonzero"/></g><g clip-path="url(#7a937ccf56)"><path fill="#ce967b" d="M 320.1875 270.929688 L 54.804688 270.929688 C 38.992188 270.929688 26.171875 283.75 26.171875 299.566406 C 26.171875 315.382812 38.992188 328.203125 54.804688 328.203125 L 320.1875 328.203125 C 336 328.203125 348.824219 315.378906 348.824219 299.566406 C 348.824219 283.753906 336.003906 270.929688 320.1875 270.929688 Z M 320.1875 270.929688 " fill-opacity="1" fill-rule="nonzero"/></g><g clip-path="url(#d1763fc762)"><path fill="#ce967b" d="M 54.804688 104.058594 L 320.1875 104.058594 C 336 104.058594 348.824219 91.238281 348.824219 75.421875 C 348.824219 59.609375 336.003906 46.785156 320.1875 46.785156 L 54.804688 46.785156 C 38.992188 46.785156 26.171875 59.605469 26.171875 75.421875 C 26.171875 91.238281 38.992188 104.058594 54.804688 104.058594 Z M 54.804688 104.058594 " fill-opacity="1" fill-rule="nonzero"/></g><g clip-path="url(#bdbe5d4b9f)"><path fill="#ce967b" d="M 320.1875 158.859375 L 54.804688 158.859375 C 38.992188 158.859375 26.171875 171.679688 26.171875 187.496094 C 26.171875 203.3125 38.992188 216.128906 54.804688 216.128906 L 320.1875 216.128906 C 336 216.128906 348.824219 203.308594 348.824219 187.496094 C 348.824219 171.679688 336.003906 158.859375 320.1875 158.859375 Z M 320.1875 158.859375 " fill-opacity="1" fill-rule="nonzero"/></g><g clip-path="url(#454be27d31)"><path fill="#ce967b" d="M 320.1875 270.929688 L 54.804688 270.929688 C 38.992188 270.929688 26.171875 283.75 26.171875 299.566406 C 26.171875 315.382812 38.992188 328.203125 54.804688 328.203125 L 320.1875 328.203125 C 336 328.203125 348.824219 315.378906 348.824219 299.566406 C 348.824219 283.753906 336.003906 270.929688 320.1875 270.929688 Z M 320.1875 270.929688 " fill-opacity="1" fill-rule="nonzero"/></g></svg>